<svg xmlns="http://www.w3.org/2000/svg" id="prefix__agreement_1_" width="39.625" height="23.898" data-name="agreement (1)" viewBox="0 0 39.625 23.898">
    <defs>
        <style>
            .prefix__cls-1{fill:#fff}
        </style>
    </defs>
    <g id="prefix__Group_14142" data-name="Group 14142" transform="translate(13.947 1.678)">
        <g id="prefix__Group_14141" data-name="Group 14141">
            <path id="prefix__Path_11476" d="M175.057 73.671a.689.689 0 0 1-.347.16 12.775 12.775 0 0 1-6.418-.771 8.91 8.91 0 0 0-2.714-.61 6.67 6.67 0 0 0-3.683 1.461c-.254.167-.5.329-.746.478l-3.619 3.619a1.626 1.626 0 0 0 1.149 2.775h.556a1.61 1.61 0 0 0 1.024-.361c.265-.217.571-.471.9-.744a19.678 19.678 0 0 1 4.179-3.017.68.68 0 0 1 .244-.044.693.693 0 0 1 .454.169l10.037 8.7 6.662-3.275-4.57-9.722z" class="prefix__cls-1" data-name="Path 11476" transform="translate(-157.053 -72.45)"/>
        </g>
    </g>
    <g id="prefix__Group_14144" data-name="Group 14144" transform="translate(7.889 14.177)">
        <g id="prefix__Group_14143" data-name="Group 14143">
            <path id="prefix__Path_11477" d="M66.115 292.632a1.355 1.355 0 0 0-1.129.6l-.758 1.137a1.355 1.355 0 0 0-.228.753v.315a1.357 1.357 0 0 0 2.486.753l.758-1.137a1.355 1.355 0 0 0 .228-.753v-.315a1.356 1.356 0 0 0-1.357-1.353z" class="prefix__cls-1" data-name="Path 11477" transform="translate(-64 -292.632)"/>
        </g>
    </g>
    <g id="prefix__Group_14146" data-name="Group 14146" transform="translate(9.972 15.566)">
        <g id="prefix__Group_14145" data-name="Group 14145">
            <path id="prefix__Path_11478" d="M98.81 313.965h-.047a1.358 1.358 0 0 0-1.086.543l-1.4 1.874a1.354 1.354 0 0 0-.277.818v.274a1.356 1.356 0 0 0 1.357 1.357h.043a1.358 1.358 0 0 0 1.086-.543l1.4-1.874a1.353 1.353 0 0 0 .272-.814v-.274a1.356 1.356 0 0 0-1.348-1.361z" class="prefix__cls-1" data-name="Path 11478" transform="translate(-96 -313.965)"/>
        </g>
    </g>
    <g id="prefix__Group_14148" data-name="Group 14148" transform="translate(12.75 16.955)">
        <g id="prefix__Group_14147" data-name="Group 14147">
            <path id="prefix__Path_11479" d="M141.477 335.3h-.047a1.358 1.358 0 0 0-1.086.543l-1.4 1.874a1.354 1.354 0 0 0-.272.814v.274a1.356 1.356 0 0 0 1.357 1.357h.047a1.358 1.358 0 0 0 1.086-.543l1.4-1.874a1.353 1.353 0 0 0 .272-.814v-.274a1.356 1.356 0 0 0-1.357-1.357z" class="prefix__cls-1" data-name="Path 11479" transform="translate(-138.667 -335.299)"/>
        </g>
    </g>
    <g id="prefix__Group_14150" data-name="Group 14150" transform="translate(15.527 18.344)">
        <g id="prefix__Group_14149" data-name="Group 14149">
            <path id="prefix__Path_11480" d="M184.144 356.632h-.044a1.358 1.358 0 0 0-1.086.543l-1.4 1.874a1.353 1.353 0 0 0-.272.814v.274a1.356 1.356 0 0 0 1.357 1.357h.047a1.358 1.358 0 0 0 1.086-.543l1.4-1.874a1.355 1.355 0 0 0 .271-.814v-.274a1.356 1.356 0 0 0-1.359-1.357z" class="prefix__cls-1" data-name="Path 11480" transform="translate(-181.334 -356.632)"/>
        </g>
    </g>
    <g id="prefix__Group_14152" data-name="Group 14152" transform="translate(19.64 21.418)">
        <g id="prefix__Group_14151" data-name="Group 14151">
            <path id="prefix__Path_11481" d="M246.758 404.914l-1.257-1.071c-.042.065-.061.143-.107.206l-.893 1.19.935.867a.7.7 0 0 0 1 .017c.344-.347.482-1.009.322-1.209z" class="prefix__cls-1" data-name="Path 11481" transform="translate(-244.501 -403.843)"/>
        </g>
    </g>
    <g id="prefix__Group_14154" data-name="Group 14154">
        <g id="prefix__Group_14153" data-name="Group 14153">
            <path id="prefix__Path_11482" d="M29.158 86.588l-10.114-8.855a29.5 29.5 0 0 0-3.417 2.61c-.331.278-.64.536-.91.756a2.972 2.972 0 0 1-1.9.675h-.556a3.015 3.015 0 0 1-2.132-5.146l3.878-3.828c.2-.121.4-.253.6-.386a20.883 20.883 0 0 0-7.418-.04A4.862 4.862 0 0 1 3.3 71.315l-1.678-.942L-3.312 81.1l7.333 3.865.386-.579a2.733 2.733 0 0 1 4.679.207 2.445 2.445 0 0 1 .335-.04 2.773 2.773 0 0 1 2.44 1.429 2.538 2.538 0 0 1 .337-.04 2.773 2.773 0 0 1 2.44 1.429 2.733 2.733 0 0 1 .337-.04h.049a2.749 2.749 0 0 1 2.746 2.746v.271l1.743 1.482.007.007.664.564a2.276 2.276 0 0 0 1.407.486 1.04 1.04 0 0 0 .665-1.839l-6.321-5.267a.694.694 0 1 1 .89-1.065l7.808 6.507a1.2 1.2 0 0 0 .764.275h.2a1.2 1.2 0 0 0 .79-2.094L18.714 83a.7.7 0 0 1 .89-1.068l7.654 6.378.036.031.114.094a1.2 1.2 0 0 0 .774.281h.186a1.213 1.213 0 0 0 .79-2.129z" class="prefix__cls-1" data-name="Path 11482" transform="translate(3.312 -70.373)"/>
        </g>
    </g>
</svg>
