<svg xmlns="http://www.w3.org/2000/svg" id="prefix__fashion" width="36.068" height="36.067" viewBox="0 0 36.068 36.067">
    <defs>
        <style>
            .prefix__cls-1{fill:#fff}
        </style>
    </defs>
    <path id="prefix__Path_2127" d="M258.479 32.7l-4.844-15.476a1.735 1.735 0 0 0-.138-3.11l1.464-5.857A5.2 5.2 0 0 0 255.117 7v-.5a3.01 3.01 0 0 0-2.327-2.92V0h-1.164v3.53a2.992 2.992 0 0 0-2.314 1.853l-.013.033-.013-.033a2.992 2.992 0 0 0-2.314-1.853V0h-1.163v3.579a3.011 3.011 0 0 0-2.327 2.921 9.205 9.205 0 0 0 .275 2.234l1.345 5.38a1.735 1.735 0 0 0-.138 3.11L240.12 32.7a2.819 2.819 0 0 0 .757 2.891l.017.015a1.736 1.736 0 0 0 2.366-.014l.231-.221a.57.57 0 0 1 .772 0l.231.222a1.739 1.739 0 0 0 2.382 0l.23-.221a.57.57 0 0 1 .772 0l.231.222a1.738 1.738 0 0 0 2.381 0l.231-.222a.57.57 0 0 1 .771 0l.231.222a1.737 1.737 0 0 0 2.381 0l.231-.221a.57.57 0 0 1 .772 0l.231.222a1.738 1.738 0 0 0 2.365.015l.018-.016a2.818 2.818 0 0 0 .756-2.891zM246.3 34.535l-.23.222a.571.571 0 0 1-.771 0l-.232-.222a1.665 1.665 0 0 0-.4-.273l3.361-16.805h.687v17.112l-.036-.034a1.739 1.739 0 0 0-2.382 0zm7 .222a.569.569 0 0 1-.771 0l-.232-.222a1.739 1.739 0 0 0-2.381 0l-.036.034V17.456h.686l3.361 16.806a1.644 1.644 0 0 0-.4.274z" class="prefix__cls-1" data-name="Path 2127" transform="translate(-222.54 -.004)"/>
    <path id="prefix__Path_2128" d="M19.656 14.323a.581.581 0 0 0 .106-.5l-2.327-9.306a.581.581 0 0 0-.335-.394L13.38 2.53V.586A.582.582 0 0 0 12.8 0H6.981A.582.582 0 0 0 6.4.586V2.53L2.68 4.123a.582.582 0 0 0-.335.394L.018 13.825a.582.582 0 0 0 .564.722h2.909a.582.582 0 0 0 .557-.415l.821-2.738.368 5.518a.581.581 0 0 0 .58.543h8.144a.582.582 0 0 0 .581-.543l.368-5.518.821 2.738a.581.581 0 0 0 .557.415H19.2a.581.581 0 0 0 .458-.224zM5.817 8.11a.569.569 0 0 0-.017-.121l-1-3.506 1.848-.792 2.667 7.467v5.135H6.362zm7.6 8.183h-2.945v-5.135l2.667-7.467 1.847.792-1 3.505h.008a.541.541 0 0 0-.029.119z" class="prefix__cls-1" data-name="Path 2128" transform="translate(-.001 -.004)"/>
    <path id="prefix__Path_2129" d="M80.726 256h-8.144a.582.582 0 0 0-.582.582v16.288a.581.581 0 0 0 .582.582h2.327a.582.582 0 0 0 .575-.491l1.171-7.414 1.17 7.414a.582.582 0 0 0 .575.491h2.327a.582.582 0 0 0 .582-.582v-16.284a.582.582 0 0 0-.583-.586zm-.582 16.288l-2.916-10.562a.582.582 0 0 0-1.149 0z" class="prefix__cls-1" data-name="Path 2129" transform="translate(-66.764 -237.389)"/>
</svg>
