<svg xmlns="http://www.w3.org/2000/svg" width="39" height="29.25" viewBox="0 0 39 29.25">
    <defs>
        <style>
            .prefix__cls-1{fill:#fff}
        </style>
    </defs>
    <g id="prefix__capitol-building" transform="translate(0 -76.998)">
        <path id="prefix__Path_11653" d="M173.868 89.163v-1.291a5.857 5.857 0 0 0-3.6-5.624v-.482a2.048 2.048 0 0 0-1.164-2.009v-1.335a.8.8 0 0 0 .311-.651.68.68 0 1 0-1.347 0 .8.8 0 0 0 .311.651v1.335a2.048 2.048 0 0 0-1.164 2.009v.482a5.857 5.857 0 0 0-3.6 5.624v1.292a10.409 10.409 0 0 1 10.257 0zm-5.767-7.4c0-.57.292-1.051.639-1.051s.638.481.638 1.051v.263a4.356 4.356 0 0 0-1.277 0z" class="prefix__cls-1" data-name="Path 11653" transform="translate(-149.24)"/>
        <path id="prefix__Path_11654" d="M27.043 200.27v1.77l-.66-.383-1.036-.6v-2.625c-.289-.486-1.7-2.419-5.846-2.419s-5.559 1.939-5.846 2.42v2.715l-1.036.559-.66.356v-1.793H0v2.43h1.023v10.558h36.955V202.7H39v-2.43H27.043zM5.2 210.42H3.854v-7.427H5.2zm3.73 0H7.585v-7.427h1.347zm10.846-11.384l5.63 3.264H13.725zm-4.629 12.676H13.4v-7.464h1.743v7.464zm3.627 0H16.6v-7.464h2.176zm3.626 0h-2.175v-7.464H22.4zm3.194 0h-1.742v-7.464h1.743v7.464zm5.82-1.291h-1.346v-7.427h1.347zm3.73 0H33.8v-7.427h1.347z" class="prefix__cls-1" data-name="Path 11654" transform="translate(0 -107.01)"/>
    </g>
</svg>
