<svg xmlns="http://www.w3.org/2000/svg" width="42.725" height="31.561" viewBox="0 0 42.725 31.561">
    <g id="prefix__Vector_Smart_Object" data-name="Vector Smart Object" transform="translate(-21.599 -35.428)">
        <g id="prefix__Group_14809" data-name="Group 14809" transform="translate(22.187 36.494)">
            <path id="prefix__Exclusion_6" d="M34.463 30H7.277c0-5.385-1.863-10.539-3.665-15.523l-.006-.015c-.832-2.3-1.694-4.686-2.359-7.06L0 6.1l1.074-2.387L2.583 6.1l-.649.836a19.517 19.517 0 0 0 3.828 6.927c1.689 1.953 3.095 2.9 4.3 2.9h.149a2.418 2.418 0 0 0 1.743-1.01 7.435 7.435 0 0 0 1.2-2.623A25.832 25.832 0 0 0 13.6 4.1l-1.048-1.152L14.011 0l1.729 2.948-.859 1.043a27.138 27.138 0 0 0 2.354 8.927c1.139 2.319 2.347 3.5 3.589 3.5s2.448-1.182 3.583-3.5a27.1 27.1 0 0 0 2.336-8.923l-.858-1.044L27.615 0l1.461 2.948-1.05 1.152a25.852 25.852 0 0 0 .467 9.026 7.447 7.447 0 0 0 1.2 2.623 2.42 2.42 0 0 0 1.744 1.011c.049 0 .1.005.146.005 1.2 0 2.606-.952 4.292-2.91a19.7 19.7 0 0 0 3.784-6.83l-.711-.925 1.509-2.387L41.531 6.1l-.956 1C39.9 9.577 39 12.063 38.131 14.467v.01C36.325 19.46 34.463 24.614 34.463 30zm-13.749-5.813l-1.995 1.995 2.3 2.3 2-1.995-2.3-2.3zm10.615.824l-1.169 1.171 1.348 1.35 1.17-1.171-1.348-1.35zm-21.23 0l-1.17 1.171 1.35 1.35 1.168-1.171-1.347-1.35zm15.923.433a.746.746 0 1 0 .641.738.7.7 0 0 0-.641-.738zm-10.614 0a.746.746 0 1 0 .64.738.7.7 0 0 0-.641-.738z" data-name="Exclusion 6" style="fill:#fff;stroke:transparent;stroke-miterlimit:10"/>
        </g>
    </g>
</svg>
