<svg xmlns="http://www.w3.org/2000/svg" width="80" height="80" viewBox="0 0 80 80">
    <defs>
        <style>
            .prefix__cls-1,.prefix__cls-2{fill:none}.prefix__cls-2{stroke:#e9e9e9;stroke-width:.5px;opacity:.56}.prefix__cls-3,.prefix__cls-4{fill:rgba(255,255,255,.25)}.prefix__cls-3{stroke:#fff;stroke-linecap:round;stroke-linejoin:round;stroke-width:.8px}.prefix__cls-4{stroke-miterlimit:10}.prefix__cls-8{fill:#fff}.prefix__cls-7,.prefix__cls-8{stroke:none}
        </style>
    </defs>
    <g id="prefix__Group_20841" data-name="Group 20841" transform="translate(-2533.602 -272.395)">
        <rect id="prefix__Rectangle_5661" width="80" height="80" class="prefix__cls-1" data-name="Rectangle 5661" rx="8" transform="translate(2533.602 272.395)"/>
        <g id="prefix__Group_1265" data-name="Group 1265" transform="translate(2549.602 288.395)">
            <g id="prefix__Ellipse_119" class="prefix__cls-2" data-name="Ellipse 119" transform="scale(-1) rotate(-10.02 -188.145 .217)">
                <circle cx="1.843" cy="1.843" r="1.843" class="prefix__cls-7"/>
                <circle cx="1.843" cy="1.843" r="1.593" class="prefix__cls-1"/>
            </g>
            <g id="prefix__Ellipse_119-2" class="prefix__cls-2" data-name="Ellipse 119" transform="scale(-1) rotate(-10.02 -265.511 38.752)">
                <circle cx="4.343" cy="4.343" r="4.343" class="prefix__cls-7"/>
                <circle cx="4.343" cy="4.343" r="4.093" class="prefix__cls-1"/>
            </g>
            <g id="prefix__Group_1271" data-name="Group 1271" transform="translate(-429.618 -56.812)">
                <path id="prefix__Path_836" d="M436.547 86.6a14.851 14.851 0 0 0 3.373 16.121 15.329 15.329 0 0 0 16.323 3.332 15.263 15.263 0 0 0 6.481 1.9 4.811 4.811 0 0 0 3.52-1.278c1.5-1.483 1.423-3.7 1.093-5.3a19.5 19.5 0 0 0-2.07-5.23 14.773 14.773 0 0 0-2.38-12.841l-.023-.031c-.13-.174-.265-.345-.4-.514l-.073-.092c-.128-.155-.262-.306-.4-.457-.035-.039-.068-.079-.1-.117-.17-.184-.344-.366-.524-.545s-.348-.335-.527-.5c-.106-.095-.215-.185-.322-.277-.071-.061-.141-.123-.213-.182-.155-.127-.313-.248-.472-.368l-.071-.055a15.169 15.169 0 0 0-9.117-3.009c-.121 0-.242.006-.363.008h-.046q-.316.008-.632.029h-.043a15.343 15.343 0 0 0-2.955.5 16.44 16.44 0 0 0-7.162-2.252 4.81 4.81 0 0 0-3.52 1.278c-1.277 1.261-2.262 3.884.3 9.216.097.219.208.441.323.664z" class="prefix__cls-3" data-name="Path 836" transform="translate(0 -9.056)"/>
                <g id="prefix__Path_837" class="prefix__cls-4" data-name="Path 837">
                    <path d="M514.835 71.358c-.382 0-.68-.268-.778-.698l-.476-2.08-.03-.128-.12-.049-1.936-.776c-.336-.135-.544-.38-.57-.67-.027-.296.13-.566.44-.76l1.767-1.104.102-.064.014-.12.24-2.07c.054-.464.365-.777.774-.777.204 0 .41.08.598.233l1.628 1.326.092.075.116-.023 2.047-.417c.078-.016.156-.024.231-.024.288 0 .53.12.663.33.142.223.142.52-.002.816l-.935 1.92-.063.13.08.12 1.194 1.769c.2.298.234.604.094.863-.138.254-.419.4-.772.4h-.03l-2.075-.045-.106-.002-.076.075-1.463 1.455c-.245.244-.488.295-.648.295z" class="prefix__cls-7" transform="translate(-50.526)"/>
                    <path d="M514.835 71.108c.165 0 .324-.075.472-.222l1.463-1.456.15-.15.213.005 2.072.045h.028c.152 0 .425-.035.552-.27.126-.232.003-.478-.081-.603l-1.193-1.77-.162-.238.126-.26.935-1.92c.105-.216.11-.424.016-.573-.119-.186-.334-.214-.452-.214-.058 0-.12.007-.181.02l-2.047.416-.232.047-.184-.15-1.628-1.326c-.142-.116-.294-.177-.44-.177-.276 0-.487.224-.526.557l-.24 2.07-.028.239-.204.127-1.766 1.103c-.131.082-.348.26-.324.526.024.266.27.403.414.46l1.935.777.243.097.059.256.476 2.08c.072.316.271.504.534.504m0 .5c-.497 0-.898-.35-1.022-.892l-.476-2.081-1.935-.776c-.426-.171-.691-.492-.726-.88-.035-.389.168-.751.557-.995L513 64.881l.24-2.07c.069-.588.489-.999 1.023-.999.262 0 .524.1.756.29l1.628 1.326 2.047-.417c.096-.02.19-.029.281-.029.374 0 .692.16.873.446.19.298.195.684.013 1.06l-.935 1.92 1.193 1.77c.252.373.29.781.107 1.12-.183.339-.544.532-.992.532h-.033l-2.077-.045-1.464 1.455c-.305.304-.617.368-.824.368z" class="prefix__cls-8" transform="translate(-50.526)"/>
                </g>
                <g id="prefix__Path_838" class="prefix__cls-4" data-name="Path 838">
                    <path d="M531.746 102.344c-.187 0-.373-.086-.522-.24l-.785-.81-.074-.076h-.107l-1.134.004c-.282 0-.52-.126-.639-.337-.117-.21-.098-.475.05-.707l.62-.967.07-.112-.052-.121-.434-1.015c-.1-.235-.087-.474.035-.656.117-.174.317-.274.55-.274.062 0 .126.008.19.022l1.101.245.116.026.093-.074.892-.7c.145-.114.307-.174.47-.174.35 0 .61.257.648.64l.109 1.12.011.12.101.066.943.613c.24.156.366.393.336.634-.03.242-.21.442-.483.536l-1.08.374-.134.047-.028.14-.224 1.104c-.07.347-.322.572-.639.572z" class="prefix__cls-7" transform="translate(-62.142 -22.797)"/>
                    <path d="M532.186 96.628c-.106 0-.215.041-.315.12l-.893.701-.186.146-.231-.051-1.102-.245c-.046-.01-.092-.016-.136-.016-.15 0-.27.058-.341.164-.102.15-.052.327-.013.418l.434 1.014.104.244-.142.223-.62.967c-.099.156-.114.32-.042.45.075.133.228.21.42.21l1.135-.005h.212l.148.152.786.81c.102.105.223.164.342.164.196 0 .347-.143.394-.371l.224-1.105.056-.28.27-.093 1.08-.374c.182-.063.297-.184.316-.332.018-.145-.064-.288-.224-.393l-.943-.612-.202-.132-.023-.24-.109-1.12c-.024-.252-.181-.414-.4-.414m0-.5c.48 0 .848.356.898.865l.109 1.121.943.613c.322.21.49.536.447.875-.042.338-.285.615-.649.742l-1.08.373-.223 1.105c-.094.461-.449.772-.884.772-.255 0-.505-.113-.702-.317l-.785-.809-1.134.004c-.376 0-.695-.173-.858-.465-.163-.292-.141-.652.058-.964l.618-.967-.433-1.015c-.135-.313-.114-.639.057-.893.165-.246.443-.385.756-.385.08 0 .162.01.245.028l1.101.245.893-.701c.189-.149.404-.227.624-.227z" class="prefix__cls-8" transform="translate(-62.142 -22.797)"/>
                </g>
                <g id="prefix__Path_839" class="prefix__cls-4" data-name="Path 839">
                    <path d="M535.381 128.478c-.125 0-.248-.057-.349-.16l-.59-.61-.074-.077h-.107l-.853.004c-.189 0-.348-.083-.426-.223-.077-.138-.064-.313.035-.468l.466-.727.071-.111-.052-.122-.326-.763c-.068-.16-.06-.314.02-.436.077-.113.209-.178.362-.178.042 0 .086.005.13.015l.829.184.115.026.093-.074.671-.527c.099-.076.208-.117.315-.117.23 0 .402.171.426.425l.082.844.012.12.1.065.71.46c.162.107.245.26.225.419-.02.16-.138.289-.323.353l-.811.281-.135.047-.029.14-.168.83c-.046.231-.21.38-.419.38z" class="prefix__cls-7" transform="translate(-65.147 -41.224)"/>
                    <path d="M535.711 124.364c-.065 0-.123.035-.16.064l-.672.527-.186.146-.23-.051-.83-.184c-.025-.006-.05-.009-.075-.009-.04 0-.114.01-.154.067-.044.066-.018.153.002.199l.326.763.104.243-.143.223-.465.727c-.023.037-.073.13-.027.212.033.059.11.094.206.094l.853-.003.213-.001.148.153.59.61c.054.054.114.084.17.084.128 0 .166-.137.174-.179l.168-.83.057-.28.27-.094.811-.281c.044-.015.146-.06.157-.148.01-.087-.076-.153-.113-.177l-.71-.461-.201-.131-.024-.24-.082-.844c-.005-.06-.034-.199-.177-.199m0-.5c.36 0 .638.268.675.652l.082.843.71.46c.241.158.367.404.336.658-.032.255-.215.464-.488.559l-.812.281-.169.831c-.07.347-.337.58-.664.58-.192 0-.38-.084-.528-.237l-.59-.61-.854.004c-.283 0-.523-.132-.645-.351-.123-.22-.107-.49.043-.725l.465-.727-.326-.763c-.1-.237-.085-.482.043-.673.124-.184.333-.289.57-.289.06 0 .12.007.183.02l.829.185.671-.527c.143-.112.304-.171.47-.171z" class="prefix__cls-8" transform="translate(-65.147 -41.224)"/>
                </g>
                <path id="prefix__Path_840" d="M439.751 80.485a3.454 3.454 0 0 1 2.516-.866 13.113 13.113 0 0 1 5.3 1.485h.007c-.151.062-.3.126-.45.193a7.4 7.4 0 0 0-1.858-.271 2.882 2.882 0 0 0-2.1.723 3.022 3.022 0 0 0-.615 2.769 8.816 8.816 0 0 0 .444 1.6c1.145 3.087 4.1 7.16 8.11 11.119s8.132 6.88 11.257 8.011a9.175 9.175 0 0 0 1.621.439 5.457 5.457 0 0 0 .873.078 2.645 2.645 0 0 0 1.931-.686c.808-.8.921-2.176.457-3.9.07-.147.139-.294.2-.443 1.687 3.476 2.028 6.326.621 7.717a3.457 3.457 0 0 1-2.517.868 12.427 12.427 0 0 1-4.824-1.264q-.777-.347-1.594-.782a46.052 46.052 0 0 1-10.275-7.818 45.591 45.591 0 0 1-7.914-10.15q-.441-.807-.791-1.575c-1.49-3.259-1.743-5.919-.399-7.247z" class="prefix__cls-3" data-name="Path 840" transform="translate(-2.827 -11.83)"/>
                <path id="prefix__Path_841" fill="none" stroke="#fff" stroke-linecap="round" stroke-linejoin="round" stroke-width="0.8px" d="M463.037 157.331a12.275 12.275 0 0 1-9.237-4.143" data-name="Path 841" transform="translate(-12.743 -60.705)"/>
                <path id="prefix__Path_842" fill="#fff" stroke="#fff" stroke-linecap="round" stroke-linejoin="round" stroke-width="0.8px" d="M447.068 144.675a8.746 8.746 0 0 0 .854 1.266" data-name="Path 842" transform="translate(-8.271 -55.049)"/>
            </g>
        </g>
    </g>
</svg>
